<svg xmlns="http://www.w3.org/2000/svg" width="75" height="75" baseProfile="tiny" version="1.1"><rect width="75" height="75" x="0" y="0" fill="#fff" shape-rendering="optimizeSpeed"/><rect width="2" height="2" x="12" y="12" fill="#000" shape-rendering="optimizeSpeed"/><rect width="2" height="2" x="14" y="12" fill="#000" shape-rendering="optimizeSpeed"/><rect width="2" height="2" x="16" y="12" fill="#000" shape-rendering="optimizeSpeed"/><rect width="2" height="2" x="18" y="12" fill="#000" shape-rendering="optimizeSpeed"/><rect width="2" height="2" x="20" y="12" fill="#000" shape-rendering="optimizeSpeed"/><rect width="2" height="2" x="22" y="12" fill="#000" shape-rendering="optimizeSpeed"/><rect width="2" height="2" x="24" y="12" fill="#000" shape-rendering="optimizeSpeed"/><rect width="2" height="2" x="30" y="12" fill="#000" shape-rendering="optimizeSpeed"/><rect width="2" height="2" x="36" y="12" fill="#000" shape-rendering="optimizeSpeed"/><rect width="2" height="2" x="48" y="12" fill="#000" shape-rendering="optimizeSpeed"/><rect width="2" height="2" x="50" y="12" fill="#000" shape-rendering="optimizeSpeed"/><rect width="2" height="2" x="52" y="12" fill="#000" shape-rendering="optimizeSpeed"/><rect width="2" height="2" x="54" y="12" fill="#000" shape-rendering="optimizeSpeed"/><rect width="2" height="2" x="56" y="12" fill="#000" shape-rendering="optimizeSpeed"/><rect width="2" height="2" x="58" y="12" fill="#000" shape-rendering="optimizeSpeed"/><rect width="2" height="2" x="60" y="12" fill="#000" shape-rendering="optimizeSpeed"/><rect width="2" height="2" x="12" y="14" fill="#000" shape-rendering="optimizeSpeed"/><rect width="2" height="2" x="24" y="14" fill="#000" shape-rendering="optimizeSpeed"/><rect width="2" height="2" x="32" y="14" fill="#000" shape-rendering="optimizeSpeed"/><rect width="2" height="2" x="44" y="14" fill="#000" shape-rendering="optimizeSpeed"/><rect width="2" height="2" x="48" y="14" fill="#000" shape-rendering="optimizeSpeed"/><rect width="2" height="2" x="60" y="14" fill="#000" shape-rendering="optimizeSpeed"/><rect width="2" height="2" x="12" y="16" fill="#000" shape-rendering="optimizeSpeed"/><rect width="2" height="2" x="16" y="16" fill="#000" shape-rendering="optimizeSpeed"/><rect width="2" height="2" x="18" y="16" fill="#000" shape-rendering="optimizeSpeed"/><rect width="2" height="2" x="20" y="16" fill="#000" shape-rendering="optimizeSpeed"/><rect width="2" height="2" x="24" y="16" fill="#000" shape-rendering="optimizeSpeed"/><rect width="2" height="2" x="30" y="16" fill="#000" shape-rendering="optimizeSpeed"/><rect width="2" height="2" x="34" y="16" fill="#000" shape-rendering="optimizeSpeed"/><rect width="2" height="2" x="36" y="16" fill="#000" shape-rendering="optimizeSpeed"/><rect width="2" height="2" x="42" y="16" fill="#000" shape-rendering="optimizeSpeed"/><rect width="2" height="2" x="44" y="16" fill="#000" shape-rendering="optimizeSpeed"/><rect width="2" height="2" x="48" y="16" fill="#000" shape-rendering="optimizeSpeed"/><rect width="2" height="2" x="52" y="16" fill="#000" shape-rendering="optimizeSpeed"/><rect width="2" height="2" x="54" y="16" fill="#000" shape-rendering="optimizeSpeed"/><rect width="2" height="2" x="56" y="16" fill="#000" shape-rendering="optimizeSpeed"/><rect width="2" height="2" x="60" y="16" fill="#000" shape-rendering="optimizeSpeed"/><rect width="2" height="2" x="12" y="18" fill="#000" shape-rendering="optimizeSpeed"/><rect width="2" height="2" x="16" y="18" fill="#000" shape-rendering="optimizeSpeed"/><rect width="2" height="2" x="18" y="18" fill="#000" shape-rendering="optimizeSpeed"/><rect width="2" height="2" x="20" y="18" fill="#000" shape-rendering="optimizeSpeed"/><rect width="2" height="2" x="24" y="18" fill="#000" shape-rendering="optimizeSpeed"/><rect width="2" height="2" x="28" y="18" fill="#000" shape-rendering="optimizeSpeed"/><rect width="2" height="2" x="30" y="18" fill="#000" shape-rendering="optimizeSpeed"/><rect width="2" height="2" x="32" y="18" fill="#000" shape-rendering="optimizeSpeed"/><rect width="2" height="2" x="38" y="18" fill="#000" shape-rendering="optimizeSpeed"/><rect width="2" height="2" x="42" y="18" fill="#000" shape-rendering="optimizeSpeed"/><rect width="2" height="2" x="44" y="18" fill="#000" shape-rendering="optimizeSpeed"/><rect width="2" height="2" x="48" y="18" fill="#000" shape-rendering="optimizeSpeed"/><rect width="2" height="2" x="52" y="18" fill="#000" shape-rendering="optimizeSpeed"/><rect width="2" height="2" x="54" y="18" fill="#000" shape-rendering="optimizeSpeed"/><rect width="2" height="2" x="56" y="18" fill="#000" shape-rendering="optimizeSpeed"/><rect width="2" height="2" x="60" y="18" fill="#000" shape-rendering="optimizeSpeed"/><rect width="2" height="2" x="12" y="20" fill="#000" shape-rendering="optimizeSpeed"/><rect width="2" height="2" x="16" y="20" fill="#000" shape-rendering="optimizeSpeed"/><rect width="2" height="2" x="18" y="20" fill="#000" shape-rendering="optimizeSpeed"/><rect width="2" height="2" x="20" y="20" fill="#000" shape-rendering="optimizeSpeed"/><rect width="2" height="2" x="24" y="20" fill="#000" shape-rendering="optimizeSpeed"/><rect width="2" height="2" x="28" y="20" fill="#000" shape-rendering="optimizeSpeed"/><rect width="2" height="2" x="30" y="20" fill="#000" shape-rendering="optimizeSpeed"/><rect width="2" height="2" x="32" y="20" fill="#000" shape-rendering="optimizeSpeed"/><rect width="2" height="2" x="34" y="20" fill="#000" shape-rendering="optimizeSpeed"/><rect width="2" height="2" x="36" y="20" fill="#000" shape-rendering="optimizeSpeed"/><rect width="2" height="2" x="38" y="20" fill="#000" shape-rendering="optimizeSpeed"/><rect width="2" height="2" x="44" y="20" fill="#000" shape-rendering="optimizeSpeed"/><rect width="2" height="2" x="48" y="20" fill="#000" shape-rendering="optimizeSpeed"/><rect width="2" height="2" x="52" y="20" fill="#000" shape-rendering="optimizeSpeed"/><rect width="2" height="2" x="54" y="20" fill="#000" shape-rendering="optimizeSpeed"/><rect width="2" height="2" x="56" y="20" fill="#000" shape-rendering="optimizeSpeed"/><rect width="2" height="2" x="60" y="20" fill="#000" shape-rendering="optimizeSpeed"/><rect width="2" height="2" x="12" y="22" fill="#000" shape-rendering="optimizeSpeed"/><rect width="2" height="2" x="24" y="22" fill="#000" shape-rendering="optimizeSpeed"/><rect width="2" height="2" x="30" y="22" fill="#000" shape-rendering="optimizeSpeed"/><rect width="2" height="2" x="32" y="22" fill="#000" shape-rendering="optimizeSpeed"/><rect width="2" height="2" x="36" y="22" fill="#000" shape-rendering="optimizeSpeed"/><rect width="2" height="2" x="38" y="22" fill="#000" shape-rendering="optimizeSpeed"/><rect width="2" height="2" x="40" y="22" fill="#000" shape-rendering="optimizeSpeed"/><rect width="2" height="2" x="48" y="22" fill="#000" shape-rendering="optimizeSpeed"/><rect width="2" height="2" x="60" y="22" fill="#000" shape-rendering="optimizeSpeed"/><rect width="2" height="2" x="12" y="24" fill="#000" shape-rendering="optimizeSpeed"/><rect width="2" height="2" x="14" y="24" fill="#000" shape-rendering="optimizeSpeed"/><rect width="2" height="2" x="16" y="24" fill="#000" shape-rendering="optimizeSpeed"/><rect width="2" height="2" x="18" y="24" fill="#000" shape-rendering="optimizeSpeed"/><rect width="2" height="2" x="20" y="24" fill="#000" shape-rendering="optimizeSpeed"/><rect width="2" height="2" x="22" y="24" fill="#000" shape-rendering="optimizeSpeed"/><rect width="2" height="2" x="24" y="24" fill="#000" shape-rendering="optimizeSpeed"/><rect width="2" height="2" x="28" y="24" fill="#000" shape-rendering="optimizeSpeed"/><rect width="2" height="2" x="32" y="24" fill="#000" shape-rendering="optimizeSpeed"/><rect width="2" height="2" x="36" y="24" fill="#000" shape-rendering="optimizeSpeed"/><rect width="2" height="2" x="40" y="24" fill="#000" shape-rendering="optimizeSpeed"/><rect width="2" height="2" x="44" y="24" fill="#000" shape-rendering="optimizeSpeed"/><rect width="2" height="2" x="48" y="24" fill="#000" shape-rendering="optimizeSpeed"/><rect width="2" height="2" x="50" y="24" fill="#000" shape-rendering="optimizeSpeed"/><rect width="2" height="2" x="52" y="24" fill="#000" shape-rendering="optimizeSpeed"/><rect width="2" height="2" x="54" y="24" fill="#000" shape-rendering="optimizeSpeed"/><rect width="2" height="2" x="56" y="24" fill="#000" shape-rendering="optimizeSpeed"/><rect width="2" height="2" x="58" y="24" fill="#000" shape-rendering="optimizeSpeed"/><rect width="2" height="2" x="60" y="24" fill="#000" shape-rendering="optimizeSpeed"/><rect width="2" height="2" x="34" y="26" fill="#000" shape-rendering="optimizeSpeed"/><rect width="2" height="2" x="36" y="26" fill="#000" shape-rendering="optimizeSpeed"/><rect width="2" height="2" x="42" y="26" fill="#000" shape-rendering="optimizeSpeed"/><rect width="2" height="2" x="44" y="26" fill="#000" shape-rendering="optimizeSpeed"/><rect width="2" height="2" x="12" y="28" fill="#000" shape-rendering="optimizeSpeed"/><rect width="2" height="2" x="14" y="28" fill="#000" shape-rendering="optimizeSpeed"/><rect width="2" height="2" x="22" y="28" fill="#000" shape-rendering="optimizeSpeed"/><rect width="2" height="2" x="24" y="28" fill="#000" shape-rendering="optimizeSpeed"/><rect width="2" height="2" x="26" y="28" fill="#000" shape-rendering="optimizeSpeed"/><rect width="2" height="2" x="30" y="28" fill="#000" shape-rendering="optimizeSpeed"/><rect width="2" height="2" x="38" y="28" fill="#000" shape-rendering="optimizeSpeed"/><rect width="2" height="2" x="40" y="28" fill="#000" shape-rendering="optimizeSpeed"/><rect width="2" height="2" x="52" y="28" fill="#000" shape-rendering="optimizeSpeed"/><rect width="2" height="2" x="54" y="28" fill="#000" shape-rendering="optimizeSpeed"/><rect width="2" height="2" x="12" y="30" fill="#000" shape-rendering="optimizeSpeed"/><rect width="2" height="2" x="18" y="30" fill="#000" shape-rendering="optimizeSpeed"/><rect width="2" height="2" x="22" y="30" fill="#000" shape-rendering="optimizeSpeed"/><rect width="2" height="2" x="26" y="30" fill="#000" shape-rendering="optimizeSpeed"/><rect width="2" height="2" x="30" y="30" fill="#000" shape-rendering="optimizeSpeed"/><rect width="2" height="2" x="32" y="30" fill="#000" shape-rendering="optimizeSpeed"/><rect width="2" height="2" x="34" y="30" fill="#000" shape-rendering="optimizeSpeed"/><rect width="2" height="2" x="36" y="30" fill="#000" shape-rendering="optimizeSpeed"/><rect width="2" height="2" x="40" y="30" fill="#000" shape-rendering="optimizeSpeed"/><rect width="2" height="2" x="42" y="30" fill="#000" shape-rendering="optimizeSpeed"/><rect width="2" height="2" x="44" y="30" fill="#000" shape-rendering="optimizeSpeed"/><rect width="2" height="2" x="50" y="30" fill="#000" shape-rendering="optimizeSpeed"/><rect width="2" height="2" x="52" y="30" fill="#000" shape-rendering="optimizeSpeed"/><rect width="2" height="2" x="54" y="30" fill="#000" shape-rendering="optimizeSpeed"/><rect width="2" height="2" x="56" y="30" fill="#000" shape-rendering="optimizeSpeed"/><rect width="2" height="2" x="58" y="30" fill="#000" shape-rendering="optimizeSpeed"/><rect width="2" height="2" x="16" y="32" fill="#000" shape-rendering="optimizeSpeed"/><rect width="2" height="2" x="20" y="32" fill="#000" shape-rendering="optimizeSpeed"/><rect width="2" height="2" x="22" y="32" fill="#000" shape-rendering="optimizeSpeed"/><rect width="2" height="2" x="24" y="32" fill="#000" shape-rendering="optimizeSpeed"/><rect width="2" height="2" x="26" y="32" fill="#000" shape-rendering="optimizeSpeed"/><rect width="2" height="2" x="32" y="32" fill="#000" shape-rendering="optimizeSpeed"/><rect width="2" height="2" x="40" y="32" fill="#000" shape-rendering="optimizeSpeed"/><rect width="2" height="2" x="42" y="32" fill="#000" shape-rendering="optimizeSpeed"/><rect width="2" height="2" x="44" y="32" fill="#000" shape-rendering="optimizeSpeed"/><rect width="2" height="2" x="54" y="32" fill="#000" shape-rendering="optimizeSpeed"/><rect width="2" height="2" x="58" y="32" fill="#000" shape-rendering="optimizeSpeed"/><rect width="2" height="2" x="60" y="32" fill="#000" shape-rendering="optimizeSpeed"/><rect width="2" height="2" x="12" y="34" fill="#000" shape-rendering="optimizeSpeed"/><rect width="2" height="2" x="14" y="34" fill="#000" shape-rendering="optimizeSpeed"/><rect width="2" height="2" x="16" y="34" fill="#000" shape-rendering="optimizeSpeed"/><rect width="2" height="2" x="20" y="34" fill="#000" shape-rendering="optimizeSpeed"/><rect width="2" height="2" x="26" y="34" fill="#000" shape-rendering="optimizeSpeed"/><rect width="2" height="2" x="30" y="34" fill="#000" shape-rendering="optimizeSpeed"/><rect width="2" height="2" x="34" y="34" fill="#000" shape-rendering="optimizeSpeed"/><rect width="2" height="2" x="40" y="34" fill="#000" shape-rendering="optimizeSpeed"/><rect width="2" height="2" x="42" y="34" fill="#000" shape-rendering="optimizeSpeed"/><rect width="2" height="2" x="46" y="34" fill="#000" shape-rendering="optimizeSpeed"/><rect width="2" height="2" x="48" y="34" fill="#000" shape-rendering="optimizeSpeed"/><rect width="2" height="2" x="50" y="34" fill="#000" shape-rendering="optimizeSpeed"/><rect width="2" height="2" x="54" y="34" fill="#000" shape-rendering="optimizeSpeed"/><rect width="2" height="2" x="60" y="34" fill="#000" shape-rendering="optimizeSpeed"/><rect width="2" height="2" x="18" y="36" fill="#000" shape-rendering="optimizeSpeed"/><rect width="2" height="2" x="24" y="36" fill="#000" shape-rendering="optimizeSpeed"/><rect width="2" height="2" x="28" y="36" fill="#000" shape-rendering="optimizeSpeed"/><rect width="2" height="2" x="30" y="36" fill="#000" shape-rendering="optimizeSpeed"/><rect width="2" height="2" x="36" y="36" fill="#000" shape-rendering="optimizeSpeed"/><rect width="2" height="2" x="42" y="36" fill="#000" shape-rendering="optimizeSpeed"/><rect width="2" height="2" x="48" y="36" fill="#000" shape-rendering="optimizeSpeed"/><rect width="2" height="2" x="50" y="36" fill="#000" shape-rendering="optimizeSpeed"/><rect width="2" height="2" x="60" y="36" fill="#000" shape-rendering="optimizeSpeed"/><rect width="2" height="2" x="12" y="38" fill="#000" shape-rendering="optimizeSpeed"/><rect width="2" height="2" x="20" y="38" fill="#000" shape-rendering="optimizeSpeed"/><rect width="2" height="2" x="22" y="38" fill="#000" shape-rendering="optimizeSpeed"/><rect width="2" height="2" x="34" y="38" fill="#000" shape-rendering="optimizeSpeed"/><rect width="2" height="2" x="36" y="38" fill="#000" shape-rendering="optimizeSpeed"/><rect width="2" height="2" x="40" y="38" fill="#000" shape-rendering="optimizeSpeed"/><rect width="2" height="2" x="42" y="38" fill="#000" shape-rendering="optimizeSpeed"/><rect width="2" height="2" x="44" y="38" fill="#000" shape-rendering="optimizeSpeed"/><rect width="2" height="2" x="46" y="38" fill="#000" shape-rendering="optimizeSpeed"/><rect width="2" height="2" x="50" y="38" fill="#000" shape-rendering="optimizeSpeed"/><rect width="2" height="2" x="58" y="38" fill="#000" shape-rendering="optimizeSpeed"/><rect width="2" height="2" x="12" y="40" fill="#000" shape-rendering="optimizeSpeed"/><rect width="2" height="2" x="18" y="40" fill="#000" shape-rendering="optimizeSpeed"/><rect width="2" height="2" x="24" y="40" fill="#000" shape-rendering="optimizeSpeed"/><rect width="2" height="2" x="26" y="40" fill="#000" shape-rendering="optimizeSpeed"/><rect width="2" height="2" x="30" y="40" fill="#000" shape-rendering="optimizeSpeed"/><rect width="2" height="2" x="36" y="40" fill="#000" shape-rendering="optimizeSpeed"/><rect width="2" height="2" x="40" y="40" fill="#000" shape-rendering="optimizeSpeed"/><rect width="2" height="2" x="42" y="40" fill="#000" shape-rendering="optimizeSpeed"/><rect width="2" height="2" x="44" y="40" fill="#000" shape-rendering="optimizeSpeed"/><rect width="2" height="2" x="48" y="40" fill="#000" shape-rendering="optimizeSpeed"/><rect width="2" height="2" x="50" y="40" fill="#000" shape-rendering="optimizeSpeed"/><rect width="2" height="2" x="52" y="40" fill="#000" shape-rendering="optimizeSpeed"/><rect width="2" height="2" x="54" y="40" fill="#000" shape-rendering="optimizeSpeed"/><rect width="2" height="2" x="58" y="40" fill="#000" shape-rendering="optimizeSpeed"/><rect width="2" height="2" x="60" y="40" fill="#000" shape-rendering="optimizeSpeed"/><rect width="2" height="2" x="12" y="42" fill="#000" shape-rendering="optimizeSpeed"/><rect width="2" height="2" x="16" y="42" fill="#000" shape-rendering="optimizeSpeed"/><rect width="2" height="2" x="18" y="42" fill="#000" shape-rendering="optimizeSpeed"/><rect width="2" height="2" x="20" y="42" fill="#000" shape-rendering="optimizeSpeed"/><rect width="2" height="2" x="22" y="42" fill="#000" shape-rendering="optimizeSpeed"/><rect width="2" height="2" x="26" y="42" fill="#000" shape-rendering="optimizeSpeed"/><rect width="2" height="2" x="28" y="42" fill="#000" shape-rendering="optimizeSpeed"/><rect width="2" height="2" x="32" y="42" fill="#000" shape-rendering="optimizeSpeed"/><rect width="2" height="2" x="40" y="42" fill="#000" shape-rendering="optimizeSpeed"/><rect width="2" height="2" x="42" y="42" fill="#000" shape-rendering="optimizeSpeed"/><rect width="2" height="2" x="44" y="42" fill="#000" shape-rendering="optimizeSpeed"/><rect width="2" height="2" x="46" y="42" fill="#000" shape-rendering="optimizeSpeed"/><rect width="2" height="2" x="50" y="42" fill="#000" shape-rendering="optimizeSpeed"/><rect width="2" height="2" x="54" y="42" fill="#000" shape-rendering="optimizeSpeed"/><rect width="2" height="2" x="56" y="42" fill="#000" shape-rendering="optimizeSpeed"/><rect width="2" height="2" x="60" y="42" fill="#000" shape-rendering="optimizeSpeed"/><rect width="2" height="2" x="12" y="44" fill="#000" shape-rendering="optimizeSpeed"/><rect width="2" height="2" x="16" y="44" fill="#000" shape-rendering="optimizeSpeed"/><rect width="2" height="2" x="20" y="44" fill="#000" shape-rendering="optimizeSpeed"/><rect width="2" height="2" x="24" y="44" fill="#000" shape-rendering="optimizeSpeed"/><rect width="2" height="2" x="26" y="44" fill="#000" shape-rendering="optimizeSpeed"/><rect width="2" height="2" x="30" y="44" fill="#000" shape-rendering="optimizeSpeed"/><rect width="2" height="2" x="38" y="44" fill="#000" shape-rendering="optimizeSpeed"/><rect width="2" height="2" x="42" y="44" fill="#000" shape-rendering="optimizeSpeed"/><rect width="2" height="2" x="44" y="44" fill="#000" shape-rendering="optimizeSpeed"/><rect width="2" height="2" x="46" y="44" fill="#000" shape-rendering="optimizeSpeed"/><rect width="2" height="2" x="48" y="44" fill="#000" shape-rendering="optimizeSpeed"/><rect width="2" height="2" x="50" y="44" fill="#000" shape-rendering="optimizeSpeed"/><rect width="2" height="2" x="52" y="44" fill="#000" shape-rendering="optimizeSpeed"/><rect width="2" height="2" x="56" y="44" fill="#000" shape-rendering="optimizeSpeed"/><rect width="2" height="2" x="28" y="46" fill="#000" shape-rendering="optimizeSpeed"/><rect width="2" height="2" x="34" y="46" fill="#000" shape-rendering="optimizeSpeed"/><rect width="2" height="2" x="38" y="46" fill="#000" shape-rendering="optimizeSpeed"/><rect width="2" height="2" x="42" y="46" fill="#000" shape-rendering="optimizeSpeed"/><rect width="2" height="2" x="44" y="46" fill="#000" shape-rendering="optimizeSpeed"/><rect width="2" height="2" x="52" y="46" fill="#000" shape-rendering="optimizeSpeed"/><rect width="2" height="2" x="12" y="48" fill="#000" shape-rendering="optimizeSpeed"/><rect width="2" height="2" x="14" y="48" fill="#000" shape-rendering="optimizeSpeed"/><rect width="2" height="2" x="16" y="48" fill="#000" shape-rendering="optimizeSpeed"/><rect width="2" height="2" x="18" y="48" fill="#000" shape-rendering="optimizeSpeed"/><rect width="2" height="2" x="20" y="48" fill="#000" shape-rendering="optimizeSpeed"/><rect width="2" height="2" x="22" y="48" fill="#000" shape-rendering="optimizeSpeed"/><rect width="2" height="2" x="24" y="48" fill="#000" shape-rendering="optimizeSpeed"/><rect width="2" height="2" x="28" y="48" fill="#000" shape-rendering="optimizeSpeed"/><rect width="2" height="2" x="32" y="48" fill="#000" shape-rendering="optimizeSpeed"/><rect width="2" height="2" x="34" y="48" fill="#000" shape-rendering="optimizeSpeed"/><rect width="2" height="2" x="44" y="48" fill="#000" shape-rendering="optimizeSpeed"/><rect width="2" height="2" x="48" y="48" fill="#000" shape-rendering="optimizeSpeed"/><rect width="2" height="2" x="52" y="48" fill="#000" shape-rendering="optimizeSpeed"/><rect width="2" height="2" x="60" y="48" fill="#000" shape-rendering="optimizeSpeed"/><rect width="2" height="2" x="12" y="50" fill="#000" shape-rendering="optimizeSpeed"/><rect width="2" height="2" x="24" y="50" fill="#000" shape-rendering="optimizeSpeed"/><rect width="2" height="2" x="28" y="50" fill="#000" shape-rendering="optimizeSpeed"/><rect width="2" height="2" x="30" y="50" fill="#000" shape-rendering="optimizeSpeed"/><rect width="2" height="2" x="32" y="50" fill="#000" shape-rendering="optimizeSpeed"/><rect width="2" height="2" x="34" y="50" fill="#000" shape-rendering="optimizeSpeed"/><rect width="2" height="2" x="42" y="50" fill="#000" shape-rendering="optimizeSpeed"/><rect width="2" height="2" x="44" y="50" fill="#000" shape-rendering="optimizeSpeed"/><rect width="2" height="2" x="52" y="50" fill="#000" shape-rendering="optimizeSpeed"/><rect width="2" height="2" x="58" y="50" fill="#000" shape-rendering="optimizeSpeed"/><rect width="2" height="2" x="12" y="52" fill="#000" shape-rendering="optimizeSpeed"/><rect width="2" height="2" x="16" y="52" fill="#000" shape-rendering="optimizeSpeed"/><rect width="2" height="2" x="18" y="52" fill="#000" shape-rendering="optimizeSpeed"/><rect width="2" height="2" x="20" y="52" fill="#000" shape-rendering="optimizeSpeed"/><rect width="2" height="2" x="24" y="52" fill="#000" shape-rendering="optimizeSpeed"/><rect width="2" height="2" x="30" y="52" fill="#000" shape-rendering="optimizeSpeed"/><rect width="2" height="2" x="34" y="52" fill="#000" shape-rendering="optimizeSpeed"/><rect width="2" height="2" x="36" y="52" fill="#000" shape-rendering="optimizeSpeed"/><rect width="2" height="2" x="38" y="52" fill="#000" shape-rendering="optimizeSpeed"/><rect width="2" height="2" x="40" y="52" fill="#000" shape-rendering="optimizeSpeed"/><rect width="2" height="2" x="42" y="52" fill="#000" shape-rendering="optimizeSpeed"/><rect width="2" height="2" x="44" y="52" fill="#000" shape-rendering="optimizeSpeed"/><rect width="2" height="2" x="46" y="52" fill="#000" shape-rendering="optimizeSpeed"/><rect width="2" height="2" x="48" y="52" fill="#000" shape-rendering="optimizeSpeed"/><rect width="2" height="2" x="50" y="52" fill="#000" shape-rendering="optimizeSpeed"/><rect width="2" height="2" x="52" y="52" fill="#000" shape-rendering="optimizeSpeed"/><rect width="2" height="2" x="56" y="52" fill="#000" shape-rendering="optimizeSpeed"/><rect width="2" height="2" x="58" y="52" fill="#000" shape-rendering="optimizeSpeed"/><rect width="2" height="2" x="12" y="54" fill="#000" shape-rendering="optimizeSpeed"/><rect width="2" height="2" x="16" y="54" fill="#000" shape-rendering="optimizeSpeed"/><rect width="2" height="2" x="18" y="54" fill="#000" shape-rendering="optimizeSpeed"/><rect width="2" height="2" x="20" y="54" fill="#000" shape-rendering="optimizeSpeed"/><rect width="2" height="2" x="24" y="54" fill="#000" shape-rendering="optimizeSpeed"/><rect width="2" height="2" x="32" y="54" fill="#000" shape-rendering="optimizeSpeed"/><rect width="2" height="2" x="34" y="54" fill="#000" shape-rendering="optimizeSpeed"/><rect width="2" height="2" x="36" y="54" fill="#000" shape-rendering="optimizeSpeed"/><rect width="2" height="2" x="38" y="54" fill="#000" shape-rendering="optimizeSpeed"/><rect width="2" height="2" x="40" y="54" fill="#000" shape-rendering="optimizeSpeed"/><rect width="2" height="2" x="42" y="54" fill="#000" shape-rendering="optimizeSpeed"/><rect width="2" height="2" x="44" y="54" fill="#000" shape-rendering="optimizeSpeed"/><rect width="2" height="2" x="46" y="54" fill="#000" shape-rendering="optimizeSpeed"/><rect width="2" height="2" x="48" y="54" fill="#000" shape-rendering="optimizeSpeed"/><rect width="2" height="2" x="58" y="54" fill="#000" shape-rendering="optimizeSpeed"/><rect width="2" height="2" x="60" y="54" fill="#000" shape-rendering="optimizeSpeed"/><rect width="2" height="2" x="12" y="56" fill="#000" shape-rendering="optimizeSpeed"/><rect width="2" height="2" x="16" y="56" fill="#000" shape-rendering="optimizeSpeed"/><rect width="2" height="2" x="18" y="56" fill="#000" shape-rendering="optimizeSpeed"/><rect width="2" height="2" x="20" y="56" fill="#000" shape-rendering="optimizeSpeed"/><rect width="2" height="2" x="24" y="56" fill="#000" shape-rendering="optimizeSpeed"/><rect width="2" height="2" x="32" y="56" fill="#000" shape-rendering="optimizeSpeed"/><rect width="2" height="2" x="54" y="56" fill="#000" shape-rendering="optimizeSpeed"/><rect width="2" height="2" x="56" y="56" fill="#000" shape-rendering="optimizeSpeed"/><rect width="2" height="2" x="60" y="56" fill="#000" shape-rendering="optimizeSpeed"/><rect width="2" height="2" x="12" y="58" fill="#000" shape-rendering="optimizeSpeed"/><rect width="2" height="2" x="24" y="58" fill="#000" shape-rendering="optimizeSpeed"/><rect width="2" height="2" x="28" y="58" fill="#000" shape-rendering="optimizeSpeed"/><rect width="2" height="2" x="32" y="58" fill="#000" shape-rendering="optimizeSpeed"/><rect width="2" height="2" x="34" y="58" fill="#000" shape-rendering="optimizeSpeed"/><rect width="2" height="2" x="40" y="58" fill="#000" shape-rendering="optimizeSpeed"/><rect width="2" height="2" x="42" y="58" fill="#000" shape-rendering="optimizeSpeed"/><rect width="2" height="2" x="44" y="58" fill="#000" shape-rendering="optimizeSpeed"/><rect width="2" height="2" x="48" y="58" fill="#000" shape-rendering="optimizeSpeed"/><rect width="2" height="2" x="50" y="58" fill="#000" shape-rendering="optimizeSpeed"/><rect width="2" height="2" x="52" y="58" fill="#000" shape-rendering="optimizeSpeed"/><rect width="2" height="2" x="60" y="58" fill="#000" shape-rendering="optimizeSpeed"/><rect width="2" height="2" x="12" y="60" fill="#000" shape-rendering="optimizeSpeed"/><rect width="2" height="2" x="14" y="60" fill="#000" shape-rendering="optimizeSpeed"/><rect width="2" height="2" x="16" y="60" fill="#000" shape-rendering="optimizeSpeed"/><rect width="2" height="2" x="18" y="60" fill="#000" shape-rendering="optimizeSpeed"/><rect width="2" height="2" x="20" y="60" fill="#000" shape-rendering="optimizeSpeed"/><rect width="2" height="2" x="22" y="60" fill="#000" shape-rendering="optimizeSpeed"/><rect width="2" height="2" x="24" y="60" fill="#000" shape-rendering="optimizeSpeed"/><rect width="2" height="2" x="28" y="60" fill="#000" shape-rendering="optimizeSpeed"/><rect width="2" height="2" x="30" y="60" fill="#000" shape-rendering="optimizeSpeed"/><rect width="2" height="2" x="36" y="60" fill="#000" shape-rendering="optimizeSpeed"/><rect width="2" height="2" x="44" y="60" fill="#000" shape-rendering="optimizeSpeed"/><rect width="2" height="2" x="54" y="60" fill="#000" shape-rendering="optimizeSpeed"/><rect width="2" height="2" x="60" y="60" fill="#000" shape-rendering="optimizeSpeed"/></svg>